<svg version="1.2" xmlns="http://www.w3.org/2000/svg" xmlns:xlink="http://www.w3.org/1999/xlink" overflow="visible" preserveAspectRatio="none" viewBox="0 0 343 210" width="343" height="210"><g transform="translate(0, 0)"><defs><path id="path-16429079349424755" d="M0 8.000000000000002 C0 3.581722001600001 3.581722001600001 0 8.000000000000002 0 C8.000000000000002 0 334.9999999999997 0 334.9999999999997 0 C339.41827799839973 0 342.9999999999997 3.581722001600001 342.9999999999997 8.000000000000002 C342.9999999999997 8.000000000000002 342.9999999999997 202.00000000000034 342.9999999999997 202.00000000000034 C342.9999999999997 206.41827799840033 339.41827799839973 210.00000000000034 334.9999999999997 210.00000000000034 C334.9999999999997 210.00000000000034 8.000000000000002 210.00000000000034 8.000000000000002 210.00000000000034 C3.581722001600001 210.00000000000034 0 206.41827799840033 0 202.00000000000034 C0 202.00000000000034 0 8.000000000000002 0 8.000000000000002 Z" vector-effect="non-scaling-stroke"/></defs><g transform="translate(0, 0)"><path d="M0 8.000000000000002 C0 3.581722001600001 3.581722001600001 0 8.000000000000002 0 C8.000000000000002 0 334.9999999999997 0 334.9999999999997 0 C339.41827799839973 0 342.9999999999997 3.581722001600001 342.9999999999997 8.000000000000002 C342.9999999999997 8.000000000000002 342.9999999999997 202.00000000000034 342.9999999999997 202.00000000000034 C342.9999999999997 206.41827799840033 339.41827799839973 210.00000000000034 334.9999999999997 210.00000000000034 C334.9999999999997 210.00000000000034 8.000000000000002 210.00000000000034 8.000000000000002 210.00000000000034 C3.581722001600001 210.00000000000034 0 206.41827799840033 0 202.00000000000034 C0 202.00000000000034 0 8.000000000000002 0 8.000000000000002 Z" style="stroke: rgb(140, 140, 140); stroke-width: 0; stroke-linecap: butt; stroke-linejoin: miter; fill: rgba(0, 0, 0, 0.44);" vector-effect="non-scaling-stroke"/></g></g></svg>