<svg version="1.2" xmlns="http://www.w3.org/2000/svg" xmlns:xlink="http://www.w3.org/1999/xlink" overflow="visible" preserveAspectRatio="none" viewBox="0 0 17.99999 23.999989999999997" width="17.99999" height="23.999989999999997"><g transform="translate(0, 0)"><g transform="translate(-0.000009999999999177334, -0.000010000000001952891) rotate(0)"><path d="M9.0124,8.66632c0.60828,0 1.09242,-0.52605 1.09242,-1.14412v-3.05095l-0.0993,-1.53863l0.47173,0.68385l1.19172,1.36766c0.1862,0.22357 0.44689,0.34191 0.71999,0.34191c0.52138,0 0.95587,-0.40768 0.95587,-0.9863c0,-0.28931 -0.09933,-0.51288 -0.29794,-0.71013l-3.19034,-3.23506c-0.28553,-0.30248 -0.55863,-0.39454 -0.84416,-0.39454c-0.28551,0 -0.5586,0.09206 -0.84413,0.39454l-3.19034,3.23506c-0.1862,0.19725 -0.29794,0.42082 -0.29794,0.71013c0,0.57862 0.43449,0.9863 0.95587,0.9863c0.26069,0 0.53379,-0.11834 0.71999,-0.34191l1.19172,-1.36766l0.47173,-0.68385l-0.0869,1.53863v3.05095c0,0.61808 0.48414,1.14412 1.07999,1.14412zM3.38897,24h11.22206c2.20965,0 3.38897,-1.23617 3.38897,-3.56384v-9.57371c0,-2.32765 -1.17932,-3.55066 -3.38897,-3.55066h-4.22067v7.23286c0,0.78904 -0.63312,1.43343 -1.37795,1.43343c-0.74481,0 -1.36549,-0.64439 -1.36549,-1.43343v-7.23286h-4.25794c-2.20965,0 -3.38897,1.22301 -3.38897,3.55066v9.57371c0,2.32767 1.17931,3.56384 3.38897,3.56384z" style="stroke-width: 0; stroke-linecap: butt; stroke-linejoin: miter; fill: rgb(255, 255, 255);" vector-effect="non-scaling-stroke"/></g><defs><path id="path-16429137162995924" d="M9.0124,8.66632c0.60828,0 1.09242,-0.52605 1.09242,-1.14412v-3.05095l-0.0993,-1.53863l0.47173,0.68385l1.19172,1.36766c0.1862,0.22357 0.44689,0.34191 0.71999,0.34191c0.52138,0 0.95587,-0.40768 0.95587,-0.9863c0,-0.28931 -0.09933,-0.51288 -0.29794,-0.71013l-3.19034,-3.23506c-0.28553,-0.30248 -0.55863,-0.39454 -0.84416,-0.39454c-0.28551,0 -0.5586,0.09206 -0.84413,0.39454l-3.19034,3.23506c-0.1862,0.19725 -0.29794,0.42082 -0.29794,0.71013c0,0.57862 0.43449,0.9863 0.95587,0.9863c0.26069,0 0.53379,-0.11834 0.71999,-0.34191l1.19172,-1.36766l0.47173,-0.68385l-0.0869,1.53863v3.05095c0,0.61808 0.48414,1.14412 1.07999,1.14412zM3.38897,24h11.22206c2.20965,0 3.38897,-1.23617 3.38897,-3.56384v-9.57371c0,-2.32765 -1.17932,-3.55066 -3.38897,-3.55066h-4.22067v7.23286c0,0.78904 -0.63312,1.43343 -1.37795,1.43343c-0.74481,0 -1.36549,-0.64439 -1.36549,-1.43343v-7.23286h-4.25794c-2.20965,0 -3.38897,1.22301 -3.38897,3.55066v9.57371c0,2.32767 1.17931,3.56384 3.38897,3.56384z" vector-effect="non-scaling-stroke"/></defs></g></svg>